<?xml version="1.0" encoding="UTF-8"?>
<svg version="1.1" viewBox="0 0 2048 696" width="500" height="170" xmlns="http://www.w3.org/2000/svg">
<path transform="translate(335,134)" d="m0 0h19l14 3 16 8 11 9 8 10 7 15 3 13v12l-4 16-6 12 1 6 8 13 12 25 7 22 5 23 2 18v30l-2 18-5 23-8 24-8 18-10 17-10 14-9 11-9 10-9 9-14 11-13 9-17 10-20 9-18 6-27 6-15 2h-37l-25-4-19-5-19-7-19-9-19-12-13-10-12-11-7-6-7-8-12-15-10-15-12-23-9-24-6-25-3-24v-27l3-24 6-25 7-20 9-19 11-18 13-17 9-10 16-16 17-13 21-13 19-9 24-8 23-5 16-2h35l27 4 22 6 5-1 11-8 10-5z" fill="#FDFDFD"/>
<path transform="translate(1511,256)" d="m0 0h56l14 2 17 5 16 8 11 7 12 11 7 11 5 15 1 6v16l-4 15-6 11-10 10-16 9-13 4-12 2h-17l-14-3-18-6-6-3 6 30 6 16 1 5-9 8-16 12-10 7-6 2-1-1v-63l2-132zm20 55-1 17v17l2 9 8 6 11 4 12 2h8l11-4 8-6 4-8v-7l-3-8-9-10-10-6-12-5-4-1z" fill="#FEFEFE"/>
<path transform="translate(834,257)" d="m0 0h47l18 2 20 6 16 8 13 9 10 10 7 11 4 12 1 5v18l-3 13-5 10-9 10-11 7-11 5-18 4h-23l-15-4-17-6h-2l6 31 5 13-1 5-9 8-18 13-10 6h-3v-39l4-135 1-18zm20 54-1 4v34l3 7 14 7 8 2 14 1 10-3 8-6 4-8v-10l-4-8-7-7-13-8-13-4-9-1z" fill="#FEFEFE"/>
<path transform="translate(491,248)" d="m0 0h28l7 1-3 9-9 25-6 22-3 23-1 23 36 6 22 5 22 8 10 6 3 4-3 31-1 27-5-1-19-10-24-9-18-5-17-2-27-1-1-1v-43l2-96 1-21z" fill="#FEFEFE"/>
<path transform="translate(1943,305)" d="m0 0h34l17 4 9 5 7 7 5 9 2 9 1 58 2 9 5 6v4l-17-1-6-3-18 4-8 1h-25l-14-3-10-6-8-9-4-10v-12l4-10 7-9 11-7 16-7 13-4 31-6 1-3-4-5-10-4h-24l-17 7-16 9-2-2-3-17v-6l3-3 12-4zm33 45-11 2-12 6-3 4 2 5 5 3 5 1h12l12-3 12-6 3-6-5-5-4-1z" fill="#FEFEFE"/>
<path transform="translate(634,301)" d="m0 0h31l15 3 10 4 9 7 6 10 2 8 1 64 4 8 3 5h-11l-9-2-7-1-13 3-9 1h-16l-15-2-12-4-10-9-5-9-1-4v-9l3-10 8-11 14-9 13-5 20-5 25-4-3-5v-2l-5-2-10-3h-18l-13 4-19 10h-4l-3-18 1-7 9-4zm31 45-12 3-8 4-3 3 1 5 3 3 8 2h13l14-4 9-6 2-4-5-5-3-1z" fill="#FEFEFE"/>
<path transform="translate(1184,308)" d="m0 0h13l14 3 12 7 10 10 8 14 3 9 1 5v20l-3 12-7 10-6 7-14 10-11 5-9 2h-12l-14-4-12-7-11-10-7-11-4-13-1-5v-16l4-13 6-11 8-10 11-8 9-4zm-4 13-10 5-6 7-2 5v10l4 9 7 8 14 8 10 2h9l9-3 5-4 4-8v-14l-6-12-8-7-10-5-4-1z" fill="#FEFEFE"/>
<path transform="translate(1831,308)" d="m0 0h77l-1 9-6 11-11 12-13 12-6 7-3 6v4l37 1 1 1v41l-2 5h-94v-9l4-11 7-11 12-14 10-10 8-7 10-10 3-5h-42l-2-1 3-11 6-17z" fill="#FEFEFE"/>
<path transform="translate(1726,308)" d="m0 0h78l-1 7-6 12-14 15-10 9-6 7-4 7-1 4 39 1v45l-1 2h-95v-8l5-14 9-12 12-14 9-9 8-7 10-10 1-3h-41l-2-1 2-10 7-20z" fill="#FEFEFE"/>
<path transform="translate(1050,308)" d="m0 0 5 1 2 7 17-7h18l10 3 9 6 8 9 6 12 2 11v18l-3 15-5 16-5 12-9 17-9 11-3 2-4-1-4-3 1-5 7-11 5-12 2-8v-15l-6-12-7-6-9-4h-15l-6 3-3 8-2 20-1 19-4 4h-11l2-24v-10l-4-26-5-22-5-14 2-4 11-5z" fill="#FEFEFE"/>
<path transform="translate(1322,318)" d="m0 0h53l21 1 2 1-3 11-6 9-6 7-8 7-12 11-6 10-2 4h17l21 1 1 1v26l-1 17-2 2h-44l-46-1-2-1v-7l6-15 10-13 10-11 8-7 12-11 7-8v-1l-40-2-1-3 9-25z" fill="#FEFEFE"/>
<path transform="translate(41,430)" d="m0 0 4 2 9 16 7 10 9 12 12 14 10 10 17 13 10 7 25 12 26 10 13 4 22 4 10 1h20l18-3 24-6 27-9 21-10 19-14 14-11 10-9 8-7 7-7 3-6h3l-1 9-8 11-13 13-8 7-11 10-11 8-17 10-19 8-25 9-36 8-10 1h-14l-17-2-25-5-24-7-18-8-20-11-14-10-15-13-10-10-8-11-4-3-1-8-9-14-9-20z" fill="#AC9A8C"/>
<path transform="translate(64,429)" d="m0 0 5 2 6 9 11 16 8 10 10 9 14 11 13 9 17 9 24 9 22 6 22 3h13l29-6 24-7 19-7 20-12 18-13 13-12 7-7h2v6l-8 11-7 7-12 9-15 12-25 13-24 8-31 7-6 1h-29l-23-4-20-6-21-8-16-9-11-8-7-6-8-7-19-19-3-10-7-12-3-9z" fill="#AC9A8C"/>
<path transform="translate(120,361)" d="m0 0h24l13 3 9 5 8 9 2 5v15l-4 6-7 6-7 3-5 1-13-1-9-3 5 17v3l-11 8-3 2h-3v-74z" fill="#AC9A8C"/>
<path transform="translate(194,276)" d="m0 0 21 3 13 5 10 9 4 6 2 12-3 10-4 5-12 6h-13l-12-5-3-2 1 12 2 6-10 7-10 3 1-10 7-44 4-21z" fill="#AC9A8C"/>
<path transform="translate(214,152)" d="m0 0h40l17 5 6 4 10 5 6 5v2l-11-1-20-5-13-2h-36l-35 4-21 5-9 4-20 11-22 13-10 8-9 8-8 7-11 10-6 1 2-6 12-14 7-6 6-7 14-11 18-11 18-10 16-8 25-7z" fill="#AC9A8C"/>
<path transform="translate(1693,307)" d="m0 0h3v108l-22 1-2-2 2-14v-35l-3-16-7-20-1-6 10-6z" fill="#FEFEFE"/>
<path transform="translate(1013,310)" d="m0 0h2v39l-1 44-1 24-23-1 3-31-1-20-4-19-6-18 1-4 24-11z" fill="#FEFEFE"/>
<path transform="translate(1578,501)" d="m0 0h7l1 5-6 5-14 3-10 6-8 8-2 3v5h6l6-4 8-7 12-9 4 1-3 8-7 13 11-6 11-11 5-8h3v5l-5 6-4 6-4 5-1 5 6-1 8-7 4-5 14-6h5l2 2v6l-4 10h2l8-5 9-10h3l2 6 10-8 4 1-1 6-5 5 1 4 8-5 4-3v-9l10-5 3-3 4 1v8l-3 3-8 4-3 5v5h5l3-3 4 1-2 4-8 5-8 1-3-7h-3l-4 5-6 1-2-2-1-5-4 1-4 4-4-1-1-2h-4l-4 4-6 2-2-1-1-7-6 5-5 1-5-3v-2l-7 6h-7l-3-3-1-5-8 4-8 6-11 11-6 4-4-1 1-5 6-7 8-7 7-7 2-7-5 2-6 7-8 4-7-1-3-4v-7l5-10 4-5 14-9zm38 27-8 4-3 4 1 4 9-5 2-4z" fill="#FEFEFE"/>
<path transform="translate(328,156)" d="m0 0h19l14 3 12 6 8 8 5 8 6 18 1 5v15l-4 6-16 9-23 11-30 14-27 12-6 1 2-4 9-6 28-13 35-18 22-11 3-1v-9l-4-15-5-12-5-7-10-7-10-3-5-1h-17l-11 4-4 6-12 37-5 12-6 12-9 19-3 3-2-1 14-40 9-29 5-17 4-8 5-4 5-2z" fill="#AC9A8C"/>
<path transform="translate(324,142)" d="m0 0h26l16 3 12 6 8 7 9 14 7 14 3 11 1 7v19l-2 7-18 5h-3l5 6 7 6 14 16 12 19 1 8-3 9-4-2-13-22-8-12-12-15-5-10 2-5 15-8 2-2 1-8-2-17-5-17-7-13-8-9-10-6-9-3-7-1h-22l-13 2-5 5-8 14-4 6-3-3 3-5 8-18 5-5 6-2z" fill="#AC9A8C"/>
<path transform="translate(220,174)" d="m0 0h15l20 2 13 4 5 4 15 8v4l-8-1-32-8-6-1h-15l-44 3-15 3-16 8-19 9-8 4-13 10-15 11-8 5h-3l1-5 12-12 10-8 11-9 20-11 23-11 10-4 15-3 10-1z" fill="#AC9A8C"/>
<path transform="translate(322,313)" d="m0 0h9l8 4 6 7 3 8v12l-6 8-10 6-2 1h-10l-10-6-6-9-1-3v-7l2-6 4-8 5-4z" fill="#AC9A8C"/>
<path transform="translate(60,256)" d="m0 0 11 1 4 1-1 5-8 20-3 15 8 1 16 6 6 3 4 5-4 22-5-1-14-8-11-4-13-3 1-13 7-45z" fill="#AC9A8C"/>
<path transform="translate(289,380)" d="m0 0h15l10 4 5 10 1 22 2 9-10-1-5 1h-17l-7-3-5-5v-11l4-5 13-6 15-3-2-3h-12l-11 4h-3l-1-9 2-3z" fill="#AC9A8C"/>
<path transform="translate(113,283)" d="m0 0 13 1 10 5 4 5 2 9-2 13v11l1 4-7-1-8-1-13-1-8-3-6-7v-7l4-6 8-5 10-2 13-1-7-3h-11l-9 1-1-1v-7l2-3z" fill="#AC9A8C"/>
<path transform="translate(204,381)" d="m0 0h32l-1 6-6 8-8 8-1 2h12l3 1-1 17-2 3h-32l-3-1-1-4 5-10 5-6 8-7 1-2h-12l-2-1 1-8z" fill="#AC9A8C"/>
<path transform="translate(246,381)" d="m0 0h30l1 4-4 6-10 10-2 4h13l1 1 1 18-4 2h-33l-2-1 2-10 5-7h2l2-4 6-5 2-4h-14l1-8z" fill="#AC9A8C"/>
<path transform="translate(1942,506)" d="m0 0 3 1-1 7-4 8-7-1-3 11-1 6 1 2 7-1 5-5 9-10 3-3 5-8 3 1-1 5-6 8-7 9v3h6l6-4 6-9 10-6h6l1 5-6 5-7 1-3 3v6l8-1 9-5 7-8 8-5 7 1 1 5-4 4-11 4-1 5 9-1 8-7 3-4 3 1h-2l-1 6 4 4 8 1 3-1 2-4 3 3-4 4-7 3-6 1-5-2-3-3-4 1-3 3-2 1h-8l-7-6-4 2-4 3h-9l-6-5-5 5-8 1-5-5h-2l-4 4-7 1-5-5v-7l4-10 8-11 4-5z" fill="#FEFEFE"/>
<path transform="translate(268,307)" d="m0 0h8l5 2 7-1 9 4 5 7 1 3v9l-5 15-7 11h-2v2l-6 2-2-1 2-5 5-10 1-5-3-6-7-3-4 1-3 9-2 9h-6l-1-2 2-10v-28z" fill="#AC9A8C"/>
<path transform="translate(378,324)" d="m0 0h10l20 4v4l-6 7-10 7-1 3 8 1 6 2-2 11-3 7-11-1-23-4-2-1 2-6 4-6 13-9 2-1v-3l-10-2-2-1 1-5z" fill="#AC9A8C"/>
<path transform="translate(1290,266)" d="m0 0h7l-1 8-8 17-14 21-11 12-3 2h-3l1-8 4-13 2-9-1-8-6-11 2-2 20-6z" fill="#FEFEFE"/>
<path transform="translate(1726,500)" d="m0 0h20l8 3 3 4 1 9-3 8-8 7-14 3-14 1-3 10-3 3-5-1 6-12-2-6 4-4 8-4 7-10 1-3-17 4-5 1 1-5 6-5zm12 8-7 8-1 9 2 2h7l10-5 4-5-1-6-5-3z" fill="#FEFEFE"/>
<path transform="translate(1906,501)" d="m0 0h20l1 3-5 7-4 2-5-4-8 1-11 5-2 3 11 3 12 4 5 3 1 5-7 8-6 3-17 2h-12l-1-1v-5l4-4 12 2 15-3 5-3v-2l-16-5-10-3-2-2 1-7 5-6 10-5z" fill="#FEFEFE"/>
<path transform="translate(1695,260)" d="m0 0h2v26l-8 5-19 10h-3v-24l5-4 17-9z" fill="#FEFEFE"/>
<path transform="translate(1015,265)" d="m0 0h2v25l-8 5-19 9h-3v-23l5-4z" fill="#FEFEFE"/>
<path transform="translate(1442,500)" d="m0 0h18l6 3v8l-12 20-8 15-6 1-1-2 7-14 10-14 5-9-24 4-7 3-1 1h-6l-1-5 3-6 11-4z" fill="#FEFEFE"/>
<path transform="translate(357,250)" d="m0 0 5 1 8 7 14 14 10 14 3 5-5 8-4-1-8-10-11-17-5-5-6-7-2-5z" fill="#AC9A8C"/>
<path transform="translate(1505,521)" d="m0 0h6l2 3-1 4-4 3-10 4 1 5 7-1 7-5 2 1-2 4-7 6-9 2-7-6v-2l-4 2-4 4h-7v-4l2-4 1-8 5-4h4l-1 5-2 3v3l4 1 3-1 2-6 8-7z" fill="#FEFEFE"/>
<path transform="translate(258,306)" d="m0 0h3l1 7-6 35h-8l-2-1 1-11 1-5v-12l-1-8 4-3z" fill="#AC9A8C"/>
<path transform="translate(190,382)" d="m0 0h4v34l-1 9h-8l-2-26-2-6v-6z" fill="#AC9A8C"/>
<path transform="translate(1803,522)" d="m0 0h14l1 5-3 5h-4l-3-4-5 2-7 8-7 6-5 9-6 7-9 1-1-4 15-15-4-4 1-4 6-1 1 5-1 2 8-6 4-4 3-6z" fill="#FEFEFE"/>
<path transform="translate(1842,521)" d="m0 0 5 1 1 6-5 10 3 1 5-4h2l-1 5-8 6h-6l-3-7-8 6-5-2-6-4v-2l5-5 9-7 8-3zm-6 7-12 6-2 6h6l12-9v-3z" fill="#FEFEFE"/>
<path transform="translate(131,384)" d="m0 0 11 1 8 5 3 4v5l-5 4h-12l-6-3v-15z" fill="#FEFEFE"/>
<path transform="translate(325,319)" d="m0 0 8 2 6 6v9l-5 4h-7l-6-4-5-8 2-5 3-3z" fill="#FEFEFE"/>
<path transform="translate(200,300)" d="m0 0 8 1 6 4 5 5 1 6-3 3-4 2-8-1-7-4v-10z" fill="#FEFEFE"/>
<path transform="translate(1487,503)" d="m0 0h3l-1 5-8 10-9 11-4 4-1 3 5-2 1-2-1 6-4 5-5 1-2-2 1-9 6-10 9-10z" fill="#FEFEFE"/>
<path transform="translate(175,442)" d="m0 0 5 1 1 6 3-1 1 5-2-1-1 2 4 1 2-7 4 2-1 7-1 1h-13l-2-2-4 5h-5v-3l5-2-1-7-2 6h-2l-1 2v-6l5-6h2v-2z" fill="#AC9A8C"/>
<path transform="translate(1806,533)" d="m0 0 4 1 3 5-1 6-5 10-5 5-2 1h-7l-1-3 7-8 5-4 1-6-2-5zm-6 20-1 3 3-1z" fill="#FEFEFE"/>
<path transform="translate(358,303)" d="m0 0h15l-2 5-7 10-7 6h-3l2-10 1-10z" fill="#AC9A8C"/>
<path transform="translate(1766,523)" d="m0 0 2 1-1 5-5 5-2 6 7-1 5-3-2 5-5 4-7 1-4-6 1-7 8-9z" fill="#FEFEFE"/>
<path transform="translate(285,442)" d="m0 0 5 2 5 3 3 10-5 1-2-10-7-2-3 4-1 5 4 1v-5l4-1 2 3-4 5h-11l1-4h3l-2-4 1-6z" fill="#AC9A8C"/>
<path transform="translate(225,448)" d="m0 0 10 2v2h2l1 5 4 2 7-1 1-5-1-4 5 1v8l-4 3-11 1-5-6-1-2-9 1-5 2 3-7z" fill="#AC9A8C"/>
<path transform="translate(191,364)" d="m0 0h4v8l-4 5-6 2h-4l1-10z" fill="#AC9A8C"/>
<path transform="translate(1778,522)" d="m0 0h15l1 5-4 5h-3l-1-4-7 2-5 5-2 1 2-5z" fill="#FEFEFE"/>
<path transform="translate(262,289)" d="m0 0h4l-3 9-5 4-8 1 1-8 3-4z" fill="#AC9A8C"/>
<path transform="translate(144,445)" d="m0 0 3 1v5l-4 1v2l8-3 3-2 1 1v6l-5 2h-7l-4-4v-5h3z" fill="#AD9B8E"/>
<path transform="translate(2019,520)" d="m0 0h5l2 4-1 9-3 3-2-1-3-7-2-2z" fill="#FEFEFE"/>
<path transform="translate(128,442)" d="m0 0h10l4 1-6 12-2 2-3-1 6-8v-1h-6l-3 2-1-1v-5z" fill="#AC9A8C"/>
<path transform="translate(303,399)" d="m0 0h7l-1 5-10 2-6-2 1-3z" fill="#FEFEFE"/>
<path transform="translate(121,304)" d="m0 0h9l2 1v4l-2 1h-12l-1-4z" fill="#FEFEFE"/>
<path transform="translate(299,446)" d="m0 0 3 2 1 7h1l1-6h3l4 9h-8l-4-1-1-2z" fill="#AC9A8C"/>
<path transform="translate(312,448)" d="m0 0 4 3 2 4 1-6 4 1-1 7-6 1-5-5v-4z" fill="#AC9A8C"/>
<path transform="translate(257,450)" d="m0 0h8v7l-6 1-4-1z" fill="#AD9B8D"/>
<path transform="translate(198,449)" d="m0 0 7 1-2 4-6 4h-4l2-6z" fill="#AF9E91"/>
<path transform="translate(221,443)" d="m0 0h14l3 4-1 3-1-3-15-1z" fill="#AC9A8C"/>
<path transform="translate(172,445)" d="m0 0 5 1 2 1 2 8-5-1-4-8z" fill="#FEFEFE"/>
<path transform="translate(1771,513)" d="m0 0 3 1v5l-5 2-1-5z" fill="#FEFEFE"/>
<path transform="translate(241,449)" d="m0 0 6 1-3 6-3 2z" fill="#AC9A8C"/>
<path transform="translate(207,452)" d="m0 0 2 1v5h-8l3-1 2-4z" fill="#AC9A8C"/>
<path transform="translate(2014,527)" d="m0 0" fill="#FEFEFE"/>
</svg>
